<svg width="344" height="186" viewBox="0 0 344 186" fill="none" xmlns="http://www.w3.org/2000/svg">
<path d="M242.83 52.2811H244.41C246.801 48.1564 250.238 44.7309 254.377 42.348C258.515 39.9652 263.21 38.7089 267.989 38.7052C268.635 38.7052 269.273 38.7365 269.906 38.7812C273.824 34.7316 278.744 31.7837 284.17 30.2352C289.596 28.6868 295.336 28.5925 300.81 29.9619C306.285 31.3313 311.3 34.1159 315.349 38.0346C319.398 41.9534 322.339 46.8676 323.874 52.2811H324.17C329.483 52.4381 334.525 54.652 338.227 58.453C341.929 62.254 344 67.3431 344 72.6406C344 77.938 341.929 83.0271 338.227 86.8281C334.525 90.6291 329.483 92.843 324.17 93H242.83C237.517 92.843 232.475 90.6291 228.773 86.8281C225.071 83.0271 223 77.938 223 72.6406C223 67.3431 225.071 62.254 228.773 58.453C232.475 54.652 237.517 52.4381 242.83 52.2811ZM324.17 88.5254C328.336 88.5198 332.334 86.8877 335.307 83.979C338.28 81.0702 339.991 77.1164 340.074 72.9651C340.156 68.8137 338.604 64.7952 335.75 61.771C332.895 58.7468 328.965 56.9577 324.803 56.787C325.644 63.0046 324.628 69.3315 321.881 74.9766C319.134 80.6216 314.779 85.3343 309.359 88.5254H324.17ZM292.982 88.5254C297.41 88.53 301.774 87.4729 305.707 85.4433C309.639 83.4137 313.024 80.4712 315.576 76.864C318.127 73.2567 319.771 69.0907 320.368 64.7173C320.965 60.344 320.498 55.8916 319.007 51.736C317.515 47.5803 315.042 43.8433 311.797 40.8401C308.552 37.837 304.629 35.6559 300.361 34.4809C296.092 33.3059 291.603 33.1714 287.271 34.0889C282.94 35.0063 278.893 36.9487 275.473 39.7522C280.311 41.1252 284.672 43.8073 288.074 47.5009C291.475 51.1944 293.783 55.755 294.742 60.6766C295.701 65.5982 295.273 70.6883 293.506 75.3822C291.738 80.0761 288.701 84.1902 284.73 87.268C287.401 88.1023 290.183 88.5263 292.982 88.5254ZM290.737 65.8615C290.733 60.4912 288.818 55.2963 285.334 51.2001C281.85 47.1038 277.021 44.3714 271.706 43.4885C269.109 46.6191 267.241 50.2843 266.235 54.2206C265.229 58.1568 265.111 62.2664 265.889 66.2537C266.666 70.241 268.321 74.0069 270.734 77.2807C273.146 80.5545 276.257 83.2548 279.841 85.1874C283.164 83.1646 285.91 80.3252 287.816 76.9413C289.723 73.5574 290.725 69.7423 290.728 65.8615H290.737ZM267.998 88.5254C270.346 88.5263 272.68 88.1625 274.916 87.447C267.922 82.7075 263.089 75.4057 261.47 67.1314C259.852 58.8572 261.578 50.2807 266.274 43.2693C260.404 43.7051 254.932 46.3932 251.01 50.768C247.088 55.1427 245.022 60.8631 245.245 66.7257C245.468 72.5883 247.964 78.1361 252.208 82.2019C256.451 86.2676 262.112 88.5344 267.998 88.5254ZM242.857 88.5254H253.003C247.914 85.1914 244.094 80.2516 242.156 74.4971C240.218 68.7426 240.274 62.5064 242.314 56.787C238.104 56.8734 234.099 58.6186 231.176 61.6407C228.254 64.6627 226.651 68.7156 226.72 72.9124C226.788 77.1092 228.521 81.1081 231.541 84.0342C234.56 86.9602 238.619 88.5751 242.83 88.5254H242.857Z" fill="white"/>
<path d="M8.52206 10.1855H9.20119C10.2287 8.38093 11.7058 6.88225 13.4843 5.83977C15.2628 4.79728 17.2802 4.24765 19.3341 4.24601C19.6119 4.24601 19.8859 4.25972 20.1579 4.27929C21.8415 2.50757 23.956 1.21788 26.2879 0.540418C28.6198 -0.137045 31.0865 -0.178299 33.4391 0.420813C35.7917 1.01993 37.9469 2.2382 39.6872 3.95266C41.4274 5.66712 42.6911 7.81707 43.3506 10.1855H43.4779C45.7611 10.2542 47.928 11.2227 49.5191 12.8857C51.1101 14.5486 52 16.7751 52 19.0927C52 21.4104 51.1101 23.6369 49.5191 25.2998C47.928 26.9627 45.7611 27.9313 43.4779 28H8.52206C6.23891 27.9313 4.07197 26.9627 2.48095 25.2998C0.889919 23.6369 -3.8147e-06 21.4104 -3.8147e-06 19.0927C-3.8147e-06 16.7751 0.889919 14.5486 2.48095 12.8857C4.07197 11.2227 6.23891 10.2542 8.52206 10.1855ZM43.4779 26.0424C45.2683 26.0399 46.9864 25.3259 48.264 24.0533C49.5416 22.7807 50.2771 21.0509 50.3126 19.2347C50.3482 17.4185 49.6811 15.6604 48.4544 14.3373C47.2276 13.0142 45.5388 12.2315 43.75 12.1568C44.1116 14.877 43.6749 17.645 42.4944 20.1148C41.314 22.5845 39.4421 24.6463 37.113 26.0424H43.4779ZM30.0748 26.0424C31.9778 26.0444 33.8535 25.5819 35.5434 24.6939C37.2333 23.806 38.688 22.5186 39.7846 20.9405C40.8812 19.3623 41.5876 17.5397 41.8442 15.6263C42.1008 13.713 41.9001 11.7651 41.259 9.94699C40.6179 8.12889 39.5552 6.49392 38.1606 5.18005C36.766 3.86619 35.0804 2.91196 33.246 2.39789C31.4116 1.88383 29.4822 1.825 27.6207 2.22638C25.7592 2.62776 24.0202 3.47757 22.5503 4.7041C24.6294 5.30479 26.5038 6.4782 27.9656 8.09413C29.4273 9.71006 30.4193 11.7053 30.8313 13.8585C31.2434 16.0117 31.0595 18.2386 30.3 20.2922C29.5405 22.3458 28.2351 24.1457 26.5286 25.4923C27.6763 25.8573 28.8721 26.0427 30.0748 26.0424ZM29.1101 16.1269C29.1083 13.7774 28.2856 11.5047 26.7882 9.71252C25.2908 7.9204 23.2157 6.72499 20.9316 6.33873C19.8156 7.70834 19.0126 9.31187 18.5803 11.034C18.148 12.7561 18.0971 14.554 18.4314 16.2985C18.7657 18.0429 19.4768 19.6905 20.5136 21.1228C21.5504 22.5551 22.8871 23.7365 24.4276 24.582C25.8556 23.697 27.0358 22.4548 27.855 20.9743C28.6742 19.4939 29.1051 17.8248 29.1062 16.1269H29.1101ZM19.338 26.0424C20.3471 26.0428 21.3502 25.8836 22.3111 25.5706C19.3051 23.497 17.2282 20.3025 16.5326 16.6825C15.837 13.0625 16.579 9.31029 18.5971 6.24281C16.0745 6.43349 13.723 7.60952 12.0375 9.52348C10.352 11.4374 9.46381 13.9401 9.55978 16.505C9.65575 19.0699 10.7284 21.497 12.5521 23.2758C14.3758 25.0546 16.8083 26.0463 19.338 26.0424ZM8.53364 26.0424H12.894C10.7068 24.5837 9.06536 22.4226 8.23246 19.905C7.39956 17.3874 7.42342 14.659 8.3002 12.1568C6.49078 12.1946 4.76981 12.9581 3.51384 14.2803C2.25788 15.6025 1.56922 17.3756 1.59856 19.2117C1.6279 21.0478 2.37285 22.7973 3.67039 24.0775C4.96793 25.3576 6.71239 26.0641 8.52206 26.0424H8.53364Z" fill="white"/>
<path d="M134.472 161.823H135.386C136.769 159.374 138.758 157.34 141.152 155.925C143.546 154.511 146.262 153.765 149.027 153.762C149.401 153.762 149.769 153.781 150.136 153.808C152.402 151.403 155.248 149.653 158.388 148.733C161.527 147.814 164.847 147.758 168.014 148.571C171.181 149.384 174.082 151.038 176.425 153.364C178.768 155.691 180.469 158.609 181.357 161.823H181.528C184.601 161.916 187.519 163.231 189.66 165.488C191.802 167.745 193 170.766 193 173.912C193 177.057 191.802 180.079 189.66 182.335C187.519 184.592 184.601 185.907 181.528 186H134.472C131.399 185.907 128.481 184.592 126.34 182.335C124.198 180.079 123 177.057 123 173.912C123 170.766 124.198 167.745 126.34 165.488C128.481 163.231 131.399 161.916 134.472 161.823ZM181.528 183.343C183.938 183.34 186.251 182.371 187.971 180.644C189.691 178.917 190.681 176.569 190.729 174.104C190.776 171.639 189.878 169.253 188.227 167.458C186.576 165.662 184.302 164.6 181.894 164.499C182.381 168.19 181.793 171.947 180.204 175.299C178.615 178.65 176.095 181.449 172.96 183.343H181.528ZM163.485 183.343C166.047 183.346 168.572 182.718 170.847 181.513C173.122 180.308 175.08 178.561 176.556 176.419C178.032 174.277 178.983 171.804 179.329 169.207C179.674 166.61 179.404 163.967 178.541 161.499C177.678 159.032 176.247 156.813 174.37 155.03C172.493 153.247 170.224 151.952 167.754 151.254C165.285 150.557 162.688 150.477 160.182 151.022C157.676 151.566 155.335 152.72 153.356 154.384C156.155 155.199 158.678 156.792 160.646 158.985C162.614 161.178 163.949 163.886 164.504 166.808C165.058 169.73 164.811 172.752 163.788 175.539C162.766 178.326 161.009 180.769 158.712 182.597C160.257 183.092 161.866 183.344 163.485 183.343ZM162.187 169.887C162.184 166.698 161.077 163.613 159.061 161.181C157.045 158.749 154.252 157.127 151.177 156.603C149.675 158.461 148.594 160.638 148.012 162.975C147.43 165.312 147.362 167.752 147.812 170.119C148.262 172.487 149.219 174.723 150.614 176.667C152.01 178.61 153.81 180.214 155.883 181.361C157.806 180.16 159.394 178.474 160.497 176.465C161.6 174.456 162.18 172.191 162.181 169.887H162.187ZM149.032 183.343C150.39 183.344 151.741 183.128 153.034 182.703C148.988 179.889 146.192 175.553 145.255 170.641C144.319 165.728 145.318 160.635 148.035 156.472C144.639 156.731 141.473 158.327 139.204 160.925C136.935 163.522 135.74 166.919 135.869 170.4C135.998 173.881 137.442 177.175 139.897 179.589C142.352 182.003 145.627 183.349 149.032 183.343ZM134.488 183.343H140.357C137.413 181.364 135.203 178.431 134.082 175.014C132.961 171.597 132.993 167.894 134.173 164.499C131.738 164.55 129.421 165.586 127.73 167.38C126.039 169.175 125.112 171.581 125.152 174.073C125.191 176.565 126.194 178.939 127.941 180.677C129.688 182.414 132.036 183.373 134.472 183.343H134.488Z" fill="white"/>
</svg>
