<svg width="344" height="186" viewBox="0 0 344 186" fill="none" xmlns="http://www.w3.org/2000/svg">
<path d="M101.17 52.2811H99.5895C97.1987 48.1564 93.7616 44.7309 89.6232 42.348C85.4847 39.9652 80.7904 38.7089 76.011 38.7052C75.3645 38.7052 74.727 38.7365 74.094 38.7812C70.1764 34.7316 65.2562 31.7837 59.8301 30.2352C54.404 28.6868 48.6641 28.5925 43.1897 29.9619C37.7154 31.3313 32.7004 34.1159 28.651 38.0346C24.6016 41.9534 21.6612 46.8676 20.1265 52.2811H19.8302C14.5175 52.4381 9.47514 54.652 5.77294 58.453C2.07075 62.254 0 67.3431 0 72.6406C0 77.938 2.07075 83.0271 5.77294 86.8281C9.47514 90.6291 14.5175 92.843 19.8302 93H101.17C106.483 92.843 111.525 90.6291 115.227 86.8281C118.929 83.0271 121 77.938 121 72.6406C121 67.3431 118.929 62.254 115.227 58.453C111.525 54.652 106.483 52.4381 101.17 52.2811ZM19.8302 88.5254C15.6642 88.5198 11.6663 86.8877 8.69335 83.979C5.72042 81.0702 4.00914 77.1164 3.92634 72.9651C3.84354 68.8137 5.39582 64.7952 8.25042 61.771C11.105 58.7468 15.0347 56.9577 19.1972 56.787C18.3557 63.0046 19.3719 69.3315 22.1187 74.9766C24.8656 80.6216 29.2212 85.3343 34.6408 88.5254H19.8302ZM51.0183 88.5254C46.59 88.53 42.2256 87.4729 38.2933 85.4433C34.3609 83.4137 30.9761 80.4712 28.4243 76.864C25.8726 73.2567 24.2288 69.0907 23.6317 64.7173C23.0346 60.344 23.5016 55.8916 24.9934 51.736C26.4853 47.5803 28.9581 43.8433 32.2032 40.8401C35.4484 37.837 39.3707 35.6559 43.6392 34.4809C47.9077 33.3059 52.3971 33.1714 56.7287 34.0889C61.0603 35.0063 65.1069 36.9487 68.5271 39.7522C63.6893 41.1252 59.3277 43.8073 55.9263 47.5009C52.5249 51.1944 50.2167 55.755 49.2579 60.6766C48.299 65.5982 48.727 70.6883 50.4943 75.3822C52.2616 80.0761 55.2992 84.1902 59.2699 87.268C56.5994 88.1023 53.8169 88.5263 51.0183 88.5254ZM53.263 65.8615C53.2672 60.4912 55.1816 55.2963 58.666 51.2001C62.1503 47.1038 66.979 44.3714 72.2938 43.4885C74.8906 46.6191 76.7592 50.2843 77.7651 54.2206C78.771 58.1568 78.8893 62.2664 78.1115 66.2537C77.3336 70.241 75.6789 74.0069 73.2664 77.2807C70.8539 80.5545 67.7435 83.2548 64.1589 85.1874C60.836 83.1646 58.0898 80.3252 56.1835 76.9413C54.2773 73.5574 53.2748 69.7423 53.272 65.8615H53.263ZM76.002 88.5254C73.6538 88.5263 71.3197 88.1625 69.0838 87.447C76.0784 82.7075 80.9112 75.4057 82.5299 67.1314C84.1485 58.8572 82.4219 50.2807 77.726 43.2693C83.596 43.7051 89.0675 46.3932 92.9896 50.768C96.9117 55.1427 98.9784 60.8631 98.7551 66.7257C98.5318 72.5883 96.0358 78.1361 91.7922 82.2019C87.5486 86.2676 81.8883 88.5344 76.002 88.5254ZM101.143 88.5254H90.9967C96.086 85.1914 99.9056 80.2516 101.844 74.4971C103.782 68.7426 103.726 62.5064 101.686 56.787C105.896 56.8734 109.901 58.6186 112.824 61.6407C115.746 64.6627 117.349 68.7156 117.28 72.9124C117.212 77.1092 115.479 81.1081 112.459 84.0342C109.44 86.9602 105.381 88.5751 101.17 88.5254H101.143Z" fill="white"/>
<path d="M335.478 10.1855H334.799C333.771 8.38093 332.294 6.88225 330.516 5.83977C328.737 4.79728 326.72 4.24765 324.666 4.24601C324.388 4.24601 324.114 4.25972 323.842 4.27929C322.158 2.50757 320.044 1.21788 317.712 0.540418C315.38 -0.137045 312.913 -0.178299 310.561 0.420813C308.208 1.01993 306.053 2.2382 304.313 3.95266C302.573 5.66712 301.309 7.81707 300.649 10.1855H300.522C298.239 10.2542 296.072 11.2227 294.481 12.8857C292.89 14.5486 292 16.7751 292 19.0927C292 21.4104 292.89 23.6369 294.481 25.2998C296.072 26.9627 298.239 27.9313 300.522 28H335.478C337.761 27.9313 339.928 26.9627 341.519 25.2998C343.11 23.6369 344 21.4104 344 19.0927C344 16.7751 343.11 14.5486 341.519 12.8857C339.928 11.2227 337.761 10.2542 335.478 10.1855ZM300.522 26.0424C298.732 26.0399 297.014 25.3259 295.736 24.0533C294.458 22.7807 293.723 21.0509 293.687 19.2347C293.652 17.4185 294.319 15.6604 295.546 14.3373C296.772 13.0142 298.461 12.2315 300.25 12.1568C299.888 14.877 300.325 17.645 301.506 20.1148C302.686 22.5845 304.558 24.6463 306.887 26.0424H300.522ZM313.925 26.0424C312.022 26.0444 310.147 25.5819 308.457 24.6939C306.767 23.806 305.312 22.5186 304.215 20.9405C303.119 19.3623 302.412 17.5397 302.156 15.6263C301.899 13.713 302.1 11.7651 302.741 9.94699C303.382 8.12889 304.445 6.49392 305.839 5.18005C307.234 3.86619 308.92 2.91196 310.754 2.39789C312.588 1.88383 314.518 1.825 316.379 2.22638C318.241 2.62776 319.98 3.47757 321.45 4.7041C319.371 5.30479 317.496 6.4782 316.034 8.09413C314.573 9.71006 313.581 11.7053 313.169 13.8585C312.757 16.0117 312.941 18.2386 313.7 20.2922C314.46 22.3458 315.765 24.1457 317.471 25.4923C316.324 25.8573 315.128 26.0427 313.925 26.0424ZM314.89 16.1269C314.892 13.7774 315.714 11.5047 317.212 9.71252C318.709 7.9204 320.784 6.72499 323.068 6.33873C324.184 7.70834 324.987 9.31187 325.42 11.034C325.852 12.7561 325.903 14.554 325.569 16.2985C325.234 18.0429 324.523 19.6905 323.486 21.1228C322.45 22.5551 321.113 23.7365 319.572 24.582C318.144 23.697 316.964 22.4548 316.145 20.9743C315.326 19.4939 314.895 17.8248 314.894 16.1269H314.89ZM324.662 26.0424C323.653 26.0428 322.65 25.8836 321.689 25.5706C324.695 23.497 326.772 20.3025 327.467 16.6825C328.163 13.0625 327.421 9.31029 325.403 6.24281C327.926 6.43349 330.277 7.60952 331.962 9.52348C333.648 11.4374 334.536 13.9401 334.44 16.505C334.344 19.0699 333.272 21.497 331.448 23.2758C329.624 25.0546 327.192 26.0463 324.662 26.0424ZM335.466 26.0424H331.106C333.293 24.5837 334.935 22.4226 335.768 19.905C336.6 17.3874 336.577 14.659 335.7 12.1568C337.509 12.1946 339.23 12.9581 340.486 14.2803C341.742 15.6025 342.431 17.3756 342.401 19.2117C342.372 21.0478 341.627 22.7973 340.33 24.0775C339.032 25.3576 337.288 26.0641 335.478 26.0424H335.466Z" fill="white"/>
<path d="M209.528 161.823H208.614C207.231 159.374 205.242 157.34 202.848 155.925C200.454 154.511 197.738 153.765 194.973 153.762C194.599 153.762 194.231 153.781 193.864 153.808C191.598 151.403 188.752 149.653 185.612 148.733C182.473 147.814 179.153 147.758 175.986 148.571C172.819 149.384 169.918 151.038 167.575 153.364C165.232 155.691 163.531 158.609 162.643 161.823H162.472C159.399 161.916 156.481 163.231 154.34 165.488C152.198 167.745 151 170.766 151 173.912C151 177.057 152.198 180.079 154.34 182.335C156.481 184.592 159.399 185.907 162.472 186H209.528C212.601 185.907 215.519 184.592 217.66 182.335C219.802 180.079 221 177.057 221 173.912C221 170.766 219.802 167.745 217.66 165.488C215.519 163.231 212.601 161.916 209.528 161.823ZM162.472 183.343C160.062 183.34 157.749 182.371 156.029 180.644C154.309 178.917 153.319 176.569 153.271 174.104C153.224 171.639 154.122 169.253 155.773 167.458C157.424 165.662 159.698 164.6 162.106 164.499C161.619 168.19 162.207 171.947 163.796 175.299C165.385 178.65 167.905 181.449 171.04 183.343H162.472ZM180.515 183.343C177.953 183.346 175.428 182.718 173.153 181.513C170.878 180.308 168.92 178.561 167.444 176.419C165.968 174.277 165.017 171.804 164.671 169.207C164.326 166.61 164.596 163.967 165.459 161.499C166.322 159.032 167.753 156.813 169.63 155.03C171.507 153.247 173.776 151.952 176.246 151.254C178.715 150.557 181.312 150.477 183.818 151.022C186.324 151.566 188.665 152.72 190.644 154.384C187.845 155.199 185.322 156.792 183.354 158.985C181.386 161.178 180.051 163.886 179.496 166.808C178.942 169.73 179.189 172.752 180.212 175.539C181.234 178.326 182.991 180.769 185.288 182.597C183.743 183.092 182.134 183.344 180.515 183.343ZM181.813 169.887C181.816 166.698 182.923 163.613 184.939 161.181C186.955 158.749 189.748 157.127 192.823 156.603C194.325 158.461 195.406 160.638 195.988 162.975C196.57 165.312 196.638 167.752 196.188 170.119C195.738 172.487 194.781 174.723 193.386 176.667C191.99 178.61 190.19 180.214 188.117 181.361C186.194 180.16 184.606 178.474 183.503 176.465C182.4 174.456 181.82 172.191 181.819 169.887H181.813ZM194.968 183.343C193.61 183.344 192.259 183.128 190.966 182.703C195.012 179.889 197.808 175.553 198.745 170.641C199.681 165.728 198.682 160.635 195.965 156.472C199.361 156.731 202.527 158.327 204.796 160.925C207.065 163.522 208.26 166.919 208.131 170.4C208.002 173.881 206.558 177.175 204.103 179.589C201.648 182.003 198.373 183.349 194.968 183.343ZM209.512 183.343H203.643C206.587 181.364 208.797 178.431 209.918 175.014C211.039 171.597 211.007 167.894 209.827 164.499C212.262 164.55 214.579 165.586 216.27 167.38C217.961 169.175 218.888 171.581 218.848 174.073C218.809 176.565 217.806 178.939 216.059 180.677C214.312 182.414 211.964 183.373 209.528 183.343H209.512Z" fill="white"/>
</svg>
