<svg width="32" height="32" viewBox="0 0 32 32" fill="none" xmlns="http://www.w3.org/2000/svg">
<path d="M5.66007 17.3221C5.66007 16.9407 5.1261 16.5745 5.17187 16.2084C4.07869 16.2501 3.0456 16.7194 2.29492 17.5152C1.54423 18.3109 1.13595 19.3696 1.15795 20.4634C1.17994 21.5571 1.63045 22.5985 2.41252 23.3635C3.19459 24.1284 4.24572 24.5558 5.33969 24.5535H11.8083C9.35208 23.0889 5.66007 20.4038 5.66007 17.3221Z" fill="#CF4BEF"/>
<path d="M20.7486 17.3221C20.7487 15.644 20.1602 14.0189 19.0856 12.73C17.8859 12.9259 16.775 13.4845 15.9023 14.3308C15.0296 15.1771 14.4371 16.2703 14.2045 17.4634C13.9718 18.6566 14.1102 19.8924 14.601 21.0045C15.0918 22.1166 15.9115 23.0517 16.9498 23.684C18.0976 23.0644 19.0565 22.1461 19.7253 21.0262C20.394 19.9063 20.7475 18.6265 20.7486 17.3221Z" fill="#00C29C"/>
<path d="M13.2882 18.4511C13.2882 15.2015 15.1189 12.5927 18.1092 11.7384C17.2137 11.0023 16.1544 10.4924 15.0206 10.2515C13.8867 10.0107 12.7116 10.046 11.5942 10.3545C10.4769 10.6629 9.45011 11.2355 8.60044 12.024C7.75076 12.8124 7.10312 13.7936 6.7121 14.8848C6.32109 15.976 6.19818 17.1452 6.35372 18.2939C6.50927 19.4425 6.93871 20.537 7.60585 21.4849C8.27299 22.4328 9.15826 23.2064 10.187 23.7405C11.2158 24.2745 12.3579 24.5534 13.517 24.5536C14.2646 24.5536 16.1716 23.562 16.8582 23.3484C15.18 22.0516 13.2882 20.7396 13.2882 18.4511Z" fill="#02BEF7"/>
<path d="M26.0119 18.6036C26.0104 17.1025 25.4423 15.6573 24.4212 14.5569C23.4001 13.4566 22.0012 12.7823 20.5044 12.6689C21.3893 13.9962 21.3282 15.5676 21.3282 17.2916C21.3282 20.175 19.0551 22.1736 16.8429 23.684C17.4074 23.867 19.4212 24.5536 20.0467 24.5536C21.6265 24.5548 23.1422 23.9288 24.2607 22.8131C25.3792 21.6975 26.0091 20.1834 26.0119 18.6036Z" fill="#F7BA22"/>
<path d="M26.7899 16.2236C27.0493 16.9712 26.5764 17.7798 26.5764 18.6189C26.5764 21.1056 23.7234 23.2873 21.8011 24.5688H26.6526C27.7442 24.5633 28.7901 24.1305 29.5663 23.3631C30.3426 22.5957 30.7873 21.5548 30.8053 20.4634C30.8232 19.372 30.413 18.317 29.6624 17.5245C28.9118 16.732 27.8807 16.265 26.7899 16.2236Z" fill="#F60F40"/>
<path d="M26.6527 14.1183H26.2408C25.6153 13.0328 24.7149 12.1313 23.6302 11.5046C22.5455 10.8779 21.3147 10.548 20.062 10.5483C19.8942 10.5483 19.7263 10.5636 19.5585 10.5636C18.5319 9.5011 17.2432 8.72813 15.8225 8.32263C14.4018 7.91713 12.8993 7.89345 11.4665 8.25397C10.0337 8.61448 8.72135 9.34645 7.66174 10.376C6.60213 11.4056 5.83276 12.6965 5.43123 14.1183H5.35495C3.93473 14.1183 2.57267 14.6825 1.56843 15.6867C0.56418 16.691 0 18.053 0 19.4732C0 20.8935 0.56418 22.2555 1.56843 23.2598C2.57267 24.264 3.93473 24.8282 5.35495 24.8282H26.6374C28.0576 24.8302 29.4205 24.268 30.4262 23.2651C31.4319 22.2623 31.998 20.9011 32 19.4809C32.002 18.0606 31.4398 16.6978 30.437 15.6921C29.4341 14.6864 28.0729 14.1203 26.6527 14.1183ZM5.35495 23.6382C4.26135 23.6449 3.20893 23.2215 2.42482 22.4591C1.6407 21.6968 1.18776 20.6567 1.16373 19.5633C1.1397 18.47 1.54651 17.411 2.29638 16.615C3.04624 15.8189 4.07903 15.3496 5.17187 15.3083C5.12317 15.6776 5.09769 16.0495 5.09559 16.422C5.09819 17.8807 5.47909 19.3137 6.20107 20.5812C6.92305 21.8487 7.96143 22.9072 9.21478 23.6534H5.35495V23.6382ZM13.517 23.6382C11.5991 23.6382 9.75979 22.8763 8.40362 21.5201C7.04746 20.164 6.28558 18.3246 6.28558 16.4067C6.28558 14.4888 7.04746 12.6495 8.40362 11.2933C9.75979 9.93715 11.5991 9.17526 13.517 9.17526C15.1933 9.17085 16.8181 9.75384 18.1092 10.8229C16.8431 11.1864 15.7023 11.8929 14.8127 12.8643C13.9231 13.8357 13.3194 15.0342 13.0683 16.3272C12.8173 17.6203 12.9287 18.9575 13.3902 20.1912C13.8517 21.4249 14.6454 22.507 15.6834 23.3178C14.9799 23.5255 14.2506 23.6334 13.517 23.6382ZM14.112 17.6883C14.1116 16.2765 14.6131 14.9106 15.527 13.8346C16.4409 12.7586 17.7076 12.0426 19.1008 11.8146C19.7824 12.6359 20.2733 13.5981 20.5381 14.6319C20.8029 15.6658 20.835 16.7455 20.6322 17.7933C20.4293 18.8411 19.9965 19.8308 19.365 20.6912C18.7335 21.5515 17.919 22.261 16.9802 22.7686C16.1054 22.2401 15.3818 21.4948 14.8794 20.6049C14.3769 19.7149 14.1126 18.7103 14.112 17.6883ZM20.062 23.6382C19.4455 23.635 18.8333 23.5372 18.2465 23.3483C19.3784 22.5783 20.3051 21.5434 20.9459 20.3336C21.5867 19.1238 21.9222 17.7758 21.9232 16.4067C21.9283 14.7484 21.4339 13.1269 20.5044 11.7536C22.0431 11.8639 23.4788 12.5675 24.5087 13.716C25.5386 14.8645 26.0821 16.3681 26.0248 17.9096C25.9674 19.4512 25.3135 20.9102 24.2011 21.9789C23.0886 23.0477 21.6046 23.6426 20.062 23.6382ZM26.6527 23.6382H23.9828C24.9686 22.9901 25.7776 22.1069 26.3369 21.0682C26.8962 20.0295 27.1882 18.868 27.1866 17.6883C27.1839 16.8774 27.0447 16.0728 26.7747 15.3083C27.8626 15.349 28.8913 15.8138 29.6407 16.6034C30.3902 17.3929 30.8009 18.4444 30.785 19.5329C30.769 20.6214 30.3277 21.6604 29.5554 22.4276C28.7831 23.1949 27.7412 23.6294 26.6527 23.6382Z" fill="#010101"/>
</svg>

